<svg width="148" height="26" viewBox="0 0 148 26" fill="none" xmlns="http://www.w3.org/2000/svg">
<path d="M11.19 20.65V25H8.58C6.72 25 5.27 24.55 4.23 23.65C3.19 22.73 2.67 21.24 2.67 19.18V12.52H0.63V8.26H2.67V4.18H7.8V8.26H11.16V12.52H7.8V19.24C7.8 19.74 7.92 20.1 8.16 20.32C8.4 20.54 8.8 20.65 9.36 20.65H11.19ZM16.6275 6.52C15.7275 6.52 14.9875 6.26 14.4075 5.74C13.8475 5.2 13.5675 4.54 13.5675 3.76C13.5675 2.96 13.8475 2.3 14.4075 1.78C14.9875 1.24 15.7275 0.969998 16.6275 0.969998C17.5075 0.969998 18.2275 1.24 18.7875 1.78C19.3675 2.3 19.6575 2.96 19.6575 3.76C19.6575 4.54 19.3675 5.2 18.7875 5.74C18.2275 6.26 17.5075 6.52 16.6275 6.52ZM19.1775 8.26V25H14.0475V8.26H19.1775ZM21.8752 16.63C21.8752 14.89 22.2252 13.37 22.9252 12.07C23.6452 10.77 24.6352 9.77 25.8952 9.07C27.1752 8.37 28.6352 8.02 30.2752 8.02C32.3752 8.02 34.1252 8.57 35.5252 9.67C36.9452 10.77 37.8752 12.32 38.3152 14.32H32.8552C32.3952 13.04 31.5052 12.4 30.1852 12.4C29.2452 12.4 28.4952 12.77 27.9352 13.51C27.3752 14.23 27.0952 15.27 27.0952 16.63C27.0952 17.99 27.3752 19.04 27.9352 19.78C28.4952 20.5 29.2452 20.86 30.1852 20.86C31.5052 20.86 32.3952 20.22 32.8552 18.94H38.3152C37.8752 20.9 36.9452 22.44 35.5252 23.56C34.1052 24.68 32.3552 25.24 30.2752 25.24C28.6352 25.24 27.1752 24.89 25.8952 24.19C24.6352 23.49 23.6452 22.49 22.9252 21.19C22.2252 19.89 21.8752 18.37 21.8752 16.63ZM51.2892 25L46.1892 17.98V25H41.0592V2.8H46.1892V15.07L51.2592 8.26H57.5892L50.6292 16.66L57.6492 25H51.2892ZM75.3841 16.36C75.3841 16.84 75.3541 17.34 75.2941 17.86H63.6841C63.7641 18.9 64.0941 19.7 64.6741 20.26C65.2741 20.8 66.0041 21.07 66.8641 21.07C68.1441 21.07 69.0341 20.53 69.5341 19.45H74.9941C74.7141 20.55 74.2041 21.54 73.4641 22.42C72.7441 23.3 71.8341 23.99 70.7341 24.49C69.6341 24.99 68.4041 25.24 67.0441 25.24C65.4041 25.24 63.9441 24.89 62.6641 24.19C61.3841 23.49 60.3841 22.49 59.6641 21.19C58.9441 19.89 58.5841 18.37 58.5841 16.63C58.5841 14.89 58.9341 13.37 59.6341 12.07C60.3541 10.77 61.3541 9.77 62.6341 9.07C63.9141 8.37 65.3841 8.02 67.0441 8.02C68.6641 8.02 70.1041 8.36 71.3641 9.04C72.6241 9.72 73.6041 10.69 74.3041 11.95C75.0241 13.21 75.3841 14.68 75.3841 16.36ZM70.1341 15.01C70.1341 14.13 69.8341 13.43 69.2341 12.91C68.6341 12.39 67.8841 12.13 66.9841 12.13C66.1241 12.13 65.3941 12.38 64.7941 12.88C64.2141 13.38 63.8541 14.09 63.7141 15.01H70.1341ZM87.4205 20.65V25H84.8105C82.9505 25 81.5005 24.55 80.4605 23.65C79.4205 22.73 78.9005 21.24 78.9005 19.18V12.52H76.8605V8.26H78.9005V4.18H84.0305V8.26H87.3905V12.52H84.0305V19.24C84.0305 19.74 84.1505 20.1 84.3905 20.32C84.6305 20.54 85.0305 20.65 85.5905 20.65H87.4205ZM98.168 3.94C100.388 3.94 102.328 4.38 103.988 5.26C105.648 6.14 106.928 7.38 107.828 8.98C108.748 10.56 109.208 12.39 109.208 14.47C109.208 16.53 108.748 18.36 107.828 19.96C106.928 21.56 105.638 22.8 103.958 23.68C102.298 24.56 100.368 25 98.168 25H90.278V3.94H98.168ZM97.838 20.56C99.778 20.56 101.288 20.03 102.368 18.97C103.448 17.91 103.988 16.41 103.988 14.47C103.988 12.53 103.448 11.02 102.368 9.94C101.288 8.86 99.778 8.32 97.838 8.32H95.408V20.56H97.838ZM117.205 8.05V12.31H124.075V16.27H117.205V20.89H124.975V25H112.075V3.94H124.975V8.05H117.205ZM141.205 25L136.915 18.55L133.135 25H127.315L134.065 14.29L127.165 3.94H133.135L137.365 10.3L141.085 3.94H146.905L140.215 14.56L147.175 25H141.205Z" fill="white"/>
</svg>
