<svg width="27" height="38" viewBox="0 0 27 38" fill="none" xmlns="http://www.w3.org/2000/svg">
<path d="M1.47266 11.2351L7.08232 9.57345L8.7491 10.8298L18.2725 8.00889L20.1933 5.68981L25.2811 4.18272M1.44349 12.9939L7.05316 11.3322M1.41433 14.7526L19.0913 9.51646L20.7512 7.27467L25.2519 5.94148M1.39024 16.2055L15.6753 11.9741L17.4073 13.2111L25.1695 10.9119M1.36107 17.9643L15.0591 13.9067L17.3731 15.2758L25.1353 12.9765M1.32937 19.876L14.3099 16.031L16.7531 17.4378L16.7315 18.7378L1.27231 23.317M1.30021 21.6347L14.2807 17.7897M1.24188 25.1522L16.7011 20.573L18.8859 21.9042L25.0174 20.088M25.1087 14.5823L18.1292 16.6497L18.0912 18.9438L19.4407 19.7615L25.0503 18.0998M18.2192 11.2205L25.1987 9.15312M25.2228 7.70023L21.2438 8.87885M25.0808 16.2646L19.4711 17.9263M1.20891 27.1404L16.6681 22.5612" stroke="#15A3B9" stroke-linecap="round" stroke-linejoin="round"/>
<path d="M1.33203 7.92847L7.72444 6.03495L9.00492 7.1014L17.876 4.47367L19.5308 2.53774L25.5319 0.760153M1.3054 9.53429L7.43689 7.71806L8.84656 8.82233L17.8481 6.15595L19.6346 4.10492L25.5052 2.36597" stroke="#15A3B9" stroke-linecap="round" stroke-linejoin="round"/>
<ellipse rx="0.519908" ry="0.572966" transform="matrix(0.95882 -0.284015 -0.0165799 0.999863 25.489 0.721856)" fill="#15A3B9"/>
<ellipse rx="0.519908" ry="0.572966" transform="matrix(0.95882 -0.284015 -0.0165799 0.999863 25.4617 2.49261)" fill="#15A3B9"/>
<ellipse rx="0.519908" ry="0.572966" transform="matrix(0.95882 -0.284015 -0.0165799 0.999863 25.4617 2.49261)" fill="#15A3B9"/>
<ellipse rx="0.519908" ry="0.572966" transform="matrix(0.95882 -0.284015 -0.0165799 0.999863 25.4617 2.49261)" fill="#15A3B9"/>
<ellipse rx="0.519908" ry="0.572966" transform="matrix(0.95882 -0.284015 -0.0165799 0.999863 25.4304 4.26287)" fill="#15A3B9"/>
<ellipse rx="0.519908" ry="0.572966" transform="matrix(0.95882 -0.284015 -0.0165799 0.999863 25.4031 6.03338)" fill="#15A3B9"/>
<ellipse rx="0.519908" ry="0.572966" transform="matrix(0.95882 -0.284015 -0.0165799 0.999863 25.3718 7.80438)" fill="#15A3B9"/>
<ellipse rx="0.519908" ry="0.572966" transform="matrix(0.95882 -0.284015 -0.0165799 0.999863 25.3484 9.26238)" fill="#15A3B9"/>
<ellipse rx="0.519908" ry="0.572966" transform="matrix(0.95882 -0.284015 -0.0165799 0.999863 25.3171 11.0334)" fill="#15A3B9"/>
<ellipse rx="0.519908" ry="0.572966" transform="matrix(0.95882 -0.284015 -0.0165799 0.999863 25.2859 12.9084)" fill="#15A3B9"/>
<ellipse rx="0.519908" ry="0.572966" transform="matrix(0.95882 -0.284015 -0.0165799 0.999863 25.2624 14.5749)" fill="#15A3B9"/>
<ellipse rx="0.519908" ry="0.572966" transform="matrix(0.95882 -0.284015 -0.0165799 0.999863 25.2351 16.2414)" fill="#15A3B9"/>
<ellipse rx="0.519908" ry="0.572966" transform="matrix(0.95882 -0.284015 -0.0165799 0.999863 25.1999 18.1164)" fill="#15A3B9"/>
<ellipse rx="0.519908" ry="0.572966" transform="matrix(0.95882 -0.284015 -0.0165799 0.999863 25.1648 20.1999)" fill="#15A3B9"/>
<path d="M23.1373 14.4124L1 7.69312V27.2781L23.1373 36.2893V29.57C23.1373 29.57 19.2074 27.3352 19.4912 24.3612C19.7549 21.5975 23.1373 20.5588 23.1373 20.5588V14.4124Z" fill="#2170F4" stroke="#1449A3" stroke-width="2" stroke-linecap="round" stroke-linejoin="round"/>
<path d="M22.7714 14.6455L1.20703 8.00562V27.0555L22.7714 35.8205V29.9098C22.7714 29.9098 18.8924 27.6427 19.2196 24.2183C19.4996 21.288 22.7714 20.2073 22.7714 20.2073V14.6455Z" fill="url(#paint0_linear)" stroke="#979797" stroke-linecap="round" stroke-linejoin="round" stroke-dasharray="1 2"/>
<path d="M8.31046 14.9387L8.64 16.2526M11.6052 15.7124L11.4937 16.8536M13.5943 18.0047L13.2118 18.9906" stroke="#75DED3" stroke-linecap="round" stroke-linejoin="round"/>
<path d="M5.61664 15.7218C5.61664 15.7218 7.20491 14.2386 10.8264 15.3632C14.448 16.4877 16.2246 19.0156 16.2246 19.0156" stroke="#75DED3" stroke-linecap="round" stroke-linejoin="round"/>
<path d="M6.28534 17.088C6.28534 17.088 7.8078 15.6735 10.9513 16.6496C14.0948 17.6257 15.493 19.947 15.493 19.947" stroke="#75DED3" stroke-linecap="round" stroke-linejoin="round"/>
<path d="M10.4987 17.8985L10.4453 24.4086C10.4453 24.4086 9.96917 24.3674 9.9632 25.0946C9.95723 25.8217 10.4316 26.0757 10.4316 26.0757L10.4223 27.2108" stroke="#75DED3" stroke-linecap="round" stroke-linejoin="round"/>
<path d="M11.4505 18.1937L11.3971 24.7038C11.3971 24.7038 11.8715 24.9577 11.8655 25.6849C11.8596 26.4121 11.3835 26.3709 11.3835 26.3709L11.3742 27.506" stroke="#75DED3" stroke-linecap="round" stroke-linejoin="round"/>
<path d="M6.88709 18.2071C6.88709 18.2071 7.1967 17.8003 8.3555 17.59C8.78461 17.5121 9.34196 17.6468 9.34196 17.6468" stroke="#75DED3" stroke-linecap="round" stroke-linejoin="round"/>
<path d="M14.7996 20.8367C14.7996 20.8367 14.5104 20.3178 13.6876 19.4937C13.2946 19.1001 12.5042 18.5503 12.5042 18.5503" stroke="#75DED3" stroke-linecap="round" stroke-linejoin="round"/>
<path d="M9.34375 17.7891L9.32742 19.7795" stroke="#75DED3" stroke-linecap="round" stroke-linejoin="round"/>
<path d="M12.4688 18.5095L12.4507 20.7132" stroke="#75DED3" stroke-linecap="round" stroke-linejoin="round"/>
<defs>
<linearGradient id="paint0_linear" x1="6.41582" y1="-12.9337" x2="13.8123" y2="37.3831" gradientUnits="userSpaceOnUse">
<stop offset="0.328125" stop-color="#51C6A3"/>
<stop offset="1" stop-color="#0D439D"/>
</linearGradient>
</defs>
</svg>
