<svg width="36" height="39" viewBox="0 0 36 39" fill="none" xmlns="http://www.w3.org/2000/svg">
<circle cx="18" cy="21" r="17.5" stroke="#E7E2E2" stroke-opacity="0.7"/>
<path fill-rule="evenodd" clip-rule="evenodd" d="M18 18C19.6569 18 21 16.6569 21 15C21 13.3431 19.6569 12 18 12C16.3431 12 15 13.3431 15 15C15 16.6569 16.3431 18 18 18ZM21 24L15 24C12.2386 24 10 26.2386 10 29L26 29C26 26.2386 23.7614 24 21 24ZM18 19C20.2091 19 22 17.2091 22 15C22 12.7909 20.2091 11 18 11C15.7909 11 14 12.7909 14 15C14 17.2091 15.7909 19 18 19ZM15 23C11.6863 23 9.00002 25.6863 9.00001 29L9 30H27V29C27 25.6863 24.3137 23 21 23L15 23Z" fill="#E7E2E2" fill-opacity="0.7"/>
<circle cx="6.5" cy="6.5" r="6.5" fill="#51C6A3"/>
</svg>
